<?xml version="1.0" encoding="UTF-8" ?>
<!DOCTYPE svg PUBLIC "-//W3C//DTD SVG 1.1//EN" "http://www.w3.org/Graphics/SVG/1.1/DTD/svg11.dtd">
<svg width="21pt" height="20pt" viewBox="0 0 21 20" version="1.1" xmlns="http://www.w3.org/2000/svg">
<g id="#c64242c6">
<path fill="#c64242" opacity="0.78" d=" M 8.17 0.00 L 13.10 0.00 C 14.04 0.57 15.90 1.70 16.84 2.26 C 13.82 2.61 10.84 0.94 7.88 1.97 C 2.82 3.22 0.01 9.62 2.78 14.12 C 5.70 19.58 14.33 19.96 17.84 14.92 C 20.16 11.98 19.49 8.04 17.91 4.94 C 15.40 8.81 13.04 12.77 10.53 16.64 C 8.52 14.02 6.32 11.45 5.30 8.24 C 7.60 9.17 9.08 11.17 10.51 13.08 C 12.85 9.37 15.07 5.59 17.64 2.04 C 18.95 3.78 20.20 5.58 21.00 7.61 L 21.00 12.51 C 19.86 16.11 16.94 18.94 13.33 20.00 L 7.79 20.00 C 4.03 18.91 1.11 15.92 0.00 12.19 L 0.00 8.02 C 1.06 4.09 4.22 0.97 8.17 0.00 Z" />
</g>
</svg>
