<?xml version="1.0" encoding="UTF-8" ?>
<!DOCTYPE svg PUBLIC "-//W3C//DTD SVG 1.1//EN" "http://www.w3.org/Graphics/SVG/1.1/DTD/svg11.dtd">
<svg width="21pt" height="20pt" viewBox="0 0 21 20" version="1.1" xmlns="http://www.w3.org/2000/svg">
<g id="#158297c7">
<path fill="#158297" opacity="0.78" d=" M 8.11 0.00 L 12.97 0.00 C 13.95 0.50 15.92 1.50 16.90 2.00 C 13.41 2.70 9.73 0.66 6.44 2.52 C 1.69 4.64 0.13 11.40 3.60 15.32 C 7.42 20.22 16.20 19.27 18.67 13.49 C 20.15 10.67 18.91 7.61 18.03 4.83 C 15.43 8.72 13.04 12.75 10.49 16.68 C 8.46 13.99 6.50 11.23 4.99 8.21 C 7.29 9.27 9.04 11.04 10.61 12.98 C 12.89 9.25 15.15 5.51 17.69 1.95 C 18.88 3.77 20.03 5.63 21.00 7.57 L 21.00 12.58 C 19.77 16.13 16.94 18.88 13.36 20.00 L 7.81 20.00 C 4.06 18.87 1.16 15.96 0.00 12.22 L 0.00 7.96 C 1.14 4.08 4.20 1.05 8.11 0.00 Z" />
</g>
</svg>
