<?xml version="1.0" encoding="UTF-8" ?>
<!DOCTYPE svg PUBLIC "-//W3C//DTD SVG 1.1//EN" "http://www.w3.org/Graphics/SVG/1.1/DTD/svg11.dtd">
<svg width="133pt" height="133pt" viewBox="0 0 133 133" version="1.1" xmlns="http://www.w3.org/2000/svg">
<g id="#f5ede4ff">
<path fill="#f5ede4" opacity="1.00" d=" M 63.51 0.00 L 70.16 0.00 C 87.60 0.96 104.51 8.93 116.09 22.04 C 126.77 33.98 133.06 49.93 132.78 66.00 C 133.11 81.47 127.34 96.84 117.44 108.66 C 110.40 106.70 103.34 104.79 96.30 102.80 C 94.87 102.40 93.44 101.99 92.01 101.63 C 90.29 101.15 88.61 100.57 86.92 100.06 C 86.86 96.35 86.75 92.65 87.02 88.95 C 87.20 85.35 89.91 82.50 90.30 78.93 C 91.04 73.89 91.34 68.78 91.61 63.70 C 92.09 61.81 92.57 59.92 93.30 58.11 C 94.14 55.76 97.02 54.65 97.18 51.96 C 98.45 45.46 99.70 38.39 97.08 32.05 C 95.28 27.79 90.71 26.01 86.67 24.57 C 83.22 17.30 74.74 14.07 67.07 14.58 C 61.21 15.06 55.33 14.64 49.56 13.48 C 49.87 15.17 50.20 16.86 50.55 18.55 C 45.05 20.40 39.81 23.90 37.42 29.38 C 33.52 37.05 35.09 45.98 36.93 54.00 C 39.88 56.01 41.03 59.48 41.55 62.86 C 42.35 68.22 42.50 73.65 43.31 79.00 C 43.72 81.92 45.53 84.35 46.46 87.09 C 46.88 91.28 46.86 95.53 46.57 99.72 C 45.02 101.01 42.85 101.13 40.99 101.77 C 39.56 102.13 38.14 102.53 36.72 102.95 C 29.87 104.90 22.98 106.72 16.13 108.68 C 6.16 96.86 0.51 81.44 0.72 65.96 C 0.52 47.17 9.07 28.60 23.24 16.32 C 34.32 6.52 48.78 0.85 63.51 0.00 Z" />
</g>
<g id="#643239ff">
<path fill="#643239" opacity="1.00" d=" M 49.56 13.48 C 55.33 14.64 61.21 15.06 67.07 14.58 C 74.74 14.07 83.22 17.30 86.67 24.57 C 90.71 26.01 95.28 27.79 97.08 32.05 C 99.70 38.39 98.45 45.46 97.18 51.96 C 97.02 54.65 94.14 55.76 93.30 58.11 C 92.57 59.92 92.09 61.81 91.61 63.70 C 91.40 55.27 92.52 46.50 89.58 38.40 C 88.12 34.54 83.45 34.61 80.03 34.86 C 75.56 34.79 71.51 38.50 67.03 36.71 C 63.10 35.61 60.38 31.22 55.93 31.99 C 49.84 32.99 44.54 37.88 43.16 43.93 C 41.20 50.08 42.25 56.56 41.55 62.86 C 41.03 59.48 39.88 56.01 36.93 54.00 C 35.09 45.98 33.52 37.05 37.42 29.38 C 39.81 23.90 45.05 20.40 50.55 18.55 C 50.20 16.86 49.87 15.17 49.56 13.48 Z" />
<path fill="#643239" opacity="1.00" d=" M 52.04 60.99 C 51.24 57.88 54.04 55.81 56.88 56.98 C 57.26 58.26 58.83 60.01 57.10 60.95 C 55.41 61.09 53.72 60.99 52.04 60.99 Z" />
<path fill="#643239" opacity="1.00" d=" M 75.92 57.92 C 77.26 56.62 79.09 56.61 80.78 57.13 C 81.48 58.43 81.59 59.73 81.11 61.04 C 79.41 61.00 77.71 60.99 76.01 61.00 C 75.99 60.23 75.95 58.69 75.92 57.92 Z" />
</g>
<g id="#eecba2ff">
<path fill="#eecba2" opacity="1.00" d=" M 43.16 43.93 C 44.54 37.88 49.84 32.99 55.93 31.99 C 60.38 31.22 63.10 35.61 67.03 36.71 C 71.51 38.50 75.56 34.79 80.03 34.86 C 83.45 34.61 88.12 34.54 89.58 38.40 C 92.52 46.50 91.40 55.27 91.61 63.70 C 91.34 68.78 91.04 73.89 90.30 78.93 C 89.91 82.50 87.20 85.35 87.02 88.95 C 86.75 92.65 86.86 96.35 86.92 100.06 C 88.61 100.57 90.29 101.15 92.01 101.63 L 91.08 101.68 C 86.52 110.88 75.80 115.06 65.98 114.71 C 56.74 114.65 46.80 110.47 42.60 101.78 C 42.20 101.78 41.39 101.77 40.99 101.77 C 42.85 101.13 45.02 101.01 46.57 99.72 C 46.86 95.53 46.88 91.28 46.46 87.09 C 45.53 84.35 43.72 81.92 43.31 79.00 C 42.50 73.65 42.35 68.22 41.55 62.86 C 42.25 56.56 41.20 50.08 43.16 43.93 M 46.12 55.52 C 46.66 55.47 47.76 55.38 48.31 55.33 C 52.09 50.67 59.01 52.11 62.98 55.74 C 63.51 55.32 64.05 54.90 64.59 54.49 C 62.07 52.60 59.27 50.89 56.06 50.65 C 52.26 50.41 47.65 51.62 46.12 55.52 M 68.68 55.82 C 67.76 60.43 68.52 65.22 68.20 69.90 C 68.81 69.85 70.02 69.76 70.62 69.71 C 70.57 65.45 70.26 61.17 70.74 56.92 C 72.80 53.07 77.88 51.89 81.85 53.06 C 84.03 53.77 85.62 56.95 88.07 54.99 C 83.76 48.50 72.30 48.85 68.68 55.82 M 52.04 60.99 C 53.72 60.99 55.41 61.09 57.10 60.95 C 58.83 60.01 57.26 58.26 56.88 56.98 C 54.04 55.81 51.24 57.88 52.04 60.99 M 75.92 57.92 C 75.95 58.69 75.99 60.23 76.01 61.00 C 77.71 60.99 79.41 61.00 81.11 61.04 C 81.59 59.73 81.48 58.43 80.78 57.13 C 79.09 56.61 77.26 56.62 75.92 57.92 M 57.04 78.33 C 59.86 86.36 71.55 87.27 76.92 81.32 C 70.46 79.56 63.68 79.13 57.04 78.33 Z" />
</g>
<g id="#d1872bff">
<path fill="#d1872b" opacity="1.00" d=" M 46.12 55.52 C 47.65 51.62 52.26 50.41 56.06 50.65 C 59.27 50.89 62.07 52.60 64.59 54.49 C 64.05 54.90 63.51 55.32 62.98 55.74 C 59.01 52.11 52.09 50.67 48.31 55.33 C 47.76 55.38 46.66 55.47 46.12 55.52 Z" />
<path fill="#d1872b" opacity="1.00" d=" M 68.68 55.82 C 72.30 48.85 83.76 48.50 88.07 54.99 C 85.62 56.95 84.03 53.77 81.85 53.06 C 77.88 51.89 72.80 53.07 70.74 56.92 C 70.26 61.17 70.57 65.45 70.62 69.71 C 70.02 69.76 68.81 69.85 68.20 69.90 C 68.52 65.22 67.76 60.43 68.68 55.82 Z" />
<path fill="#d1872b" opacity="1.00" d=" M 57.04 78.33 C 63.68 79.13 70.46 79.56 76.92 81.32 C 71.55 87.27 59.86 86.36 57.04 78.33 Z" />
<path fill="#d1872b" opacity="1.00" d=" M 36.72 102.95 C 38.14 102.53 39.56 102.13 40.99 101.77 C 41.39 101.77 42.20 101.78 42.60 101.78 C 46.80 110.47 56.74 114.65 65.98 114.71 C 75.80 115.06 86.52 110.88 91.08 101.68 L 92.01 101.63 C 93.44 101.99 94.87 102.40 96.30 102.80 C 94.54 109.85 88.19 114.89 81.66 117.42 C 74.82 120.30 67.24 120.14 59.98 119.66 C 50.15 118.40 40.32 112.56 36.72 102.95 Z" />
</g>
<g id="#e6a321ff">
<path fill="#e6a321" opacity="1.00" d=" M 16.13 108.68 C 22.98 106.72 29.87 104.90 36.72 102.95 C 40.32 112.56 50.15 118.40 59.98 119.66 C 67.24 120.14 74.82 120.30 81.66 117.42 C 88.19 114.89 94.54 109.85 96.30 102.80 C 103.34 104.79 110.40 106.70 117.44 108.66 C 104.10 124.72 82.85 133.77 62.03 132.06 C 44.39 130.93 27.45 122.24 16.13 108.68 Z" />
</g>
</svg>
