<?xml version="1.0" encoding="UTF-8" ?>
<!DOCTYPE svg PUBLIC "-//W3C//DTD SVG 1.1//EN" "http://www.w3.org/Graphics/SVG/1.1/DTD/svg11.dtd">
<svg width="36pt" height="24pt" viewBox="0 0 36 24" version="1.1" xmlns="http://www.w3.org/2000/svg">
<g id="#ffffffff">
<path fill="#ffffff" opacity="1.00" d=" M 13.58 0.00 L 19.81 0.00 C 20.90 0.34 21.98 0.69 23.06 1.06 C 27.36 0.45 33.94 -1.01 36.00 4.15 L 36.00 7.26 C 35.24 9.19 34.12 10.93 32.92 12.60 C 34.10 13.99 35.22 15.44 36.00 17.10 L 36.00 20.60 C 34.58 21.66 33.39 23.01 31.90 24.00 L 24.47 24.00 C 23.85 22.54 21.58 22.36 21.08 24.00 L 16.02 24.00 C 7.40 22.82 3.30 14.22 0.00 7.22 L 0.00 3.97 C 1.96 -0.55 7.52 0.45 11.46 0.78 C 11.99 0.59 13.05 0.20 13.58 0.00 M 14.25 4.92 C 15.62 7.10 15.35 9.77 14.90 12.23 C 11.87 11.26 11.10 7.77 9.71 5.28 C 7.93 5.26 6.15 5.26 4.37 5.27 C 7.25 11.68 11.36 20.73 19.93 19.39 C 20.30 18.34 20.09 15.48 21.97 16.01 C 23.65 17.19 24.66 19.71 27.04 19.52 C 28.57 19.37 30.69 20.07 31.69 18.51 C 30.42 16.41 27.90 15.19 26.95 12.95 C 28.18 10.20 30.80 8.27 31.64 5.29 C 29.60 5.25 27.55 5.24 25.50 5.27 C 24.17 7.61 23.41 11.56 20.30 11.93 C 20.29 9.59 20.23 7.25 20.14 4.92 C 18.32 4.55 15.67 3.96 14.25 4.92 Z" />
</g>
</svg>
