<?xml version="1.0" encoding="UTF-8" ?>
<!DOCTYPE svg PUBLIC "-//W3C//DTD SVG 1.1//EN" "http://www.w3.org/Graphics/SVG/1.1/DTD/svg11.dtd">
<svg width="23pt" height="35pt" viewBox="0 0 23 35" version="1.1" xmlns="http://www.w3.org/2000/svg">
<g id="#ffffffff">
<path fill="#ffffff" opacity="1.00" d=" M 12.30 0.00 L 18.85 0.00 C 20.35 1.00 21.66 2.24 23.00 3.43 L 23.00 14.35 C 22.69 17.92 22.45 22.48 18.26 23.56 C 17.94 27.47 19.73 33.00 15.16 35.00 L 6.94 35.00 C 2.48 32.79 4.35 27.47 3.99 23.54 C 2.33 22.84 0.82 21.81 0.00 20.15 L 0.00 12.64 C 0.55 10.86 2.16 9.96 3.76 9.27 C 4.51 4.82 7.72 0.83 12.30 0.00 M 10.94 5.85 C 8.27 7.74 8.82 11.41 8.73 14.25 C 7.73 14.25 5.74 14.25 4.75 14.25 C 4.75 15.67 4.75 17.08 4.75 18.50 C 6.08 18.50 7.41 18.50 8.75 18.50 C 8.75 22.41 8.75 26.33 8.75 30.25 C 10.33 30.25 11.91 30.25 13.49 30.25 C 13.50 26.33 13.49 22.41 13.50 18.49 C 14.81 18.50 16.12 18.51 17.43 18.51 C 17.63 17.09 17.84 15.66 18.05 14.24 C 16.53 14.25 15.00 14.25 13.47 14.25 C 13.44 12.45 13.50 10.64 13.81 8.86 C 15.30 8.82 16.78 8.77 18.26 8.71 C 18.25 7.39 18.25 6.07 18.25 4.75 C 15.81 4.85 13.03 4.20 10.94 5.85 Z" />
</g>
</svg>
