<?xml version="1.0" encoding="UTF-8" ?>
<!DOCTYPE svg PUBLIC "-//W3C//DTD SVG 1.1//EN" "http://www.w3.org/Graphics/SVG/1.1/DTD/svg11.dtd">
<svg width="36pt" height="30pt" viewBox="0 0 36 30" version="1.1" xmlns="http://www.w3.org/2000/svg">
<g id="#ffffffff">
<path fill="#ffffff" opacity="1.00" d=" M 20.64 0.00 L 25.00 0.00 C 27.31 0.76 29.71 0.34 32.09 0.47 C 34.58 1.12 35.30 3.86 36.00 5.99 L 36.00 8.57 C 32.76 12.18 33.02 17.38 30.26 21.25 C 27.25 26.11 21.91 29.08 16.36 30.00 L 10.40 30.00 C 6.61 29.20 2.03 28.28 0.00 24.59 L 0.00 21.24 C 0.86 20.16 1.82 19.17 2.80 18.20 C 0.58 14.34 0.58 9.69 1.38 5.44 C 1.90 2.87 4.06 0.74 6.77 0.74 C 9.66 0.92 11.52 3.41 13.58 5.13 C 15.39 2.76 17.73 0.82 20.64 0.00 M 17.71 11.43 C 13.36 11.01 9.56 8.83 6.32 6.02 C 5.54 8.73 6.88 11.12 8.58 13.11 C 7.88 12.89 6.48 12.45 5.78 12.23 C 6.49 14.64 8.22 16.46 10.60 17.25 C 9.92 17.37 8.57 17.61 7.89 17.73 C 9.23 19.40 11.08 20.44 13.12 21.01 C 10.96 22.36 8.52 23.08 5.98 23.30 C 13.15 27.50 23.33 24.33 26.80 16.76 C 28.72 13.88 27.15 9.62 30.52 7.64 L 27.78 8.10 L 30.23 5.69 C 27.28 7.99 24.91 4.02 21.98 4.97 C 18.98 5.45 17.43 8.62 17.71 11.43 Z" />
</g>
</svg>
